<?xml version="1.0" encoding="UTF-8"?>
<svg id="Layer_2" dataName="Layer 2" xmlns="http://www.w3.org/2000/svg" viewBox="0 0 48.91 36.15">
  <defs>
    <style>
      .cls-1 {
        fill: #fff;
      }
    </style>
  </defs>
  <g id="discord">
    <path class="cls-1" d="M42.13,4.01C37.9,.6,31.2,.03,30.92,0c-.45-.04-.87,.22-1.05,.62-.01,.03-.16,.36-.32,.88,2.8,.47,6.24,1.42,9.35,3.35,.5,.31,.65,.96,.34,1.47-.2,.32-.55,.5-.9,.5-.19,0-.38-.05-.56-.16-5.35-3.32-12.03-3.48-13.32-3.48s-7.97,.17-13.31,3.48c-.5,.31-1.15,.16-1.47-.34-.31-.5-.16-1.15,.34-1.47,3.11-1.93,6.55-2.88,9.35-3.35-.16-.52-.31-.86-.32-.88-.18-.41-.61-.67-1.06-.62-.28,.02-6.98,.6-11.27,4.05C4.48,6.13,0,18.24,0,28.71c0,.18,.05,.37,.14,.53,3.09,5.43,11.53,6.85,13.45,6.92h.03c.34,0,.66-.16,.86-.44l1.95-2.67c-5.24-1.36-7.92-3.66-8.08-3.79-.44-.39-.48-1.06-.09-1.5s1.06-.48,1.5-.1c.06,.06,5,4.24,14.7,4.24s14.65-4.2,14.7-4.25c.44-.38,1.11-.34,1.5,.1,.39,.44,.34,1.11-.09,1.5-.16,.14-2.83,2.44-8.08,3.79l1.95,2.67c.2,.28,.52,.44,.86,.44h.03c1.92-.06,10.36-1.48,13.45-6.92,.09-.16,.14-.34,.14-.52,0-10.47-4.48-22.58-6.78-24.7ZM17.54,24.46c-2.05,0-3.72-1.91-3.72-4.25s1.67-4.25,3.72-4.25,3.72,1.91,3.72,4.25-1.67,4.25-3.72,4.25Zm13.82,0c-2.05,0-3.72-1.91-3.72-4.25s1.67-4.25,3.72-4.25,3.72,1.91,3.72,4.25-1.67,4.25-3.72,4.25Z"/>
  </g>
</svg>