<?xml version="1.0" encoding="UTF-8"?>
<svg id="Layer_2" dataName="Layer 2" xmlns="http://www.w3.org/2000/svg" viewBox="0 0 48.79 48.79">
  <defs>
    <style>
      .cls-1 {
        fill: #fff;
      }
    </style>
  </defs>
  <g id="Layer_5" data-name="Layer 5">
    <path class="cls-1" d="M24.4,0C10.92,0,0,10.92,0,24.4s10.92,24.4,24.4,24.4,24.4-10.92,24.4-24.4S37.87,0,24.4,0Zm0,4.88c10.76,0,19.52,8.76,19.52,19.52,0,1.14-.11,2.27-.3,3.35-.6-.13-1.49-.3-2.52-.3-.76,0-1.72,.11-2.52,.23,.28-.85,.46-1.78,.46-2.74,0-2.34-1.14-4.53-2.97-6.33,.51-1.88,1-5.1-.3-6.4-3.86,0-5.99,2.75-6.1,2.9-1.19-.29-2.42-.46-3.74-.46-1.69,0-3.3,.3-4.8,.76l.46-.38s-2.14-2.97-6.1-2.97c-1.38,1.39-.75,4.92-.23,6.71-1.87,1.78-3.05,3.89-3.05,6.18,0,.8,.19,1.56,.38,2.29-.68-.08-3.12-.3-4.12-.3-.89,0-2.26,.21-3.35,.46-.15-.97-.23-1.96-.23-2.97C4.88,13.64,13.64,4.88,24.4,4.88ZM8.46,27.52c.96,0,3.89,.34,4.27,.38,.05,.13,.1,.26,.15,.38-1.05-.1-3.08-.24-4.42-.08-.9,.1-2.04,.43-3.05,.69-.08-.3-.17-.6-.23-.91,1.07-.23,2.47-.46,3.28-.46Zm32.63,.53c.97,0,1.86,.17,2.44,.3-.03,.16-.11,.3-.15,.46-.62-.14-1.64-.35-2.82-.38-.57,0-1.49,.02-2.29,.08,.04-.08,.05-.15,.08-.23,.83-.11,1.89-.24,2.74-.23Zm-31.11,.69c1.37,0,2.66,.1,3.2,.15,1.28,2.38,3.86,4.15,7.85,4.88-.98,.54-1.86,1.31-2.52,2.21-.57,.05-1.17,.08-1.75,.08-1.7,0-2.75-1.52-3.66-2.82-.91-1.31-2.04-1.45-2.67-1.52-.64-.08-.86,.29-.53,.53,1.86,1.43,2.53,3.13,3.28,4.65,.68,1.37,2.1,2.13,3.66,2.13h.3c-.05,.27-.08,.51-.08,.76v2.67c-5.63-2.28-9.92-7.09-11.51-13.04,1-.25,2.13-.51,2.97-.61,.39-.05,.89-.09,1.45-.08Zm30.57,.3c1.1,.03,2.07,.24,2.67,.38-1.34,5.05-4.66,9.25-9.07,11.82v-1.45c0-2.08-1.64-4.75-3.96-6.02,3.86-.71,6.38-2.39,7.7-4.65,.92-.07,2.01-.1,2.67-.08Zm-14.94,9.99c.67,0,1.22,.55,1.22,1.22v3.51c-.8,.1-1.61,.15-2.44,.15v-3.66c0-.67,.55-1.22,1.22-1.22Zm-4.88,2.44c.67,0,1.22,.55,1.22,1.22v1.07c-.82-.1-1.65-.26-2.44-.46v-.61c0-.67,.55-1.22,1.22-1.22Zm9.76,0c.59,0,1.11,.43,1.22,.99-.79,.32-1.6,.62-2.44,.84v-.61c0-.67,.55-1.22,1.22-1.22Z"/>
  </g>
</svg>