<?xml version="1.0" encoding="UTF-8"?>
<svg id="Layer_2" dataName="Layer 2" xmlns="http://www.w3.org/2000/svg" viewBox="0 0 48.91 48.91">
  <defs>
    <style>
      .cls-1 {
        fill: #fff;
      }
    </style>
  </defs>
  <g id="Layer_4" dataName="Layer 4">
    <path class="cls-1" d="M43.47,0H5.43C2.43,0,0,2.43,0,5.43V43.47c0,3,2.43,5.43,5.43,5.43H43.47c3,0,5.43-2.43,5.43-5.43V5.43c0-3-2.43-5.43-5.43-5.43ZM16.3,38.04h-6.86V19.02h6.86v19.02Zm-3.55-22.51c-2.09,0-3.49-1.4-3.49-3.26s1.4-3.26,3.73-3.26c2.09,0,3.49,1.4,3.49,3.26s-1.4,3.26-3.73,3.26Zm28,22.51h-6.64v-10.4c0-2.87-1.77-3.54-2.43-3.54s-2.87,.44-2.87,3.54v10.4h-6.86V19.02h6.86v2.65c.88-1.55,2.65-2.65,5.97-2.65s5.97,2.65,5.97,8.62v10.4Z"/>
  </g>
</svg>