<?xml version="1.0" encoding="UTF-8"?>
<svg id="Layer_2" dataName="Layer 2" xmlns="http://www.w3.org/2000/svg" viewBox="0 0 48.91 35.71">
  <defs>
    <style>
      .cls-1 {
        fill: #fff;
      }
    </style>
  </defs>
  <g id="mail">
    <g>
      <polygon class="cls-1" points="0 7.52 0 31.7 14.54 19.61 0 7.52"/>
      <path class="cls-1" d="M45.05,0H3.86C1.96,0,.37,1.39,.06,3.2l19.22,15.98,3.2,2.66c1.09,.91,2.87,.91,3.96,0l3.37-2.8L48.85,3.2c-.31-1.81-1.9-3.2-3.8-3.2Z"/>
      <polygon class="cls-1" points="48.91 31.7 48.91 7.52 34.37 19.61 48.91 31.7"/>
      <path class="cls-1" d="M29.03,24.05l-2.6,2.16c-1.09,.91-2.87,.91-3.96,0l-3.36-2.79-1.96-1.63L1.45,34.86c.66,.53,1.5,.85,2.41,.85H45.05c.91,0,1.75-.32,2.41-.85l-15.71-13.06-2.71,2.26Z"/>
    </g>
  </g>
</svg>