<?xml version="1.0" encoding="UTF-8"?>
<svg id="Layer_2" dataName="Layer 2" xmlns="http://www.w3.org/2000/svg" viewBox="0 0 48.91 48.12">
  <defs>
    <style>
      .cls-1 {
        fill: #fff;
      }
    </style>
  </defs>
  <g id="Layer_6" dataName="Layer 6">
    <g id="icons8-call-50.psd">
      <path class="cls-1" d="M48.59,11.32c-2.93,1.98-6,3.79-8.81,5.92-2.62,2-5.1,2.33-7.82,.36-.43-.31-.91-.6-1.41-.73-2.93-.76-15.26,11.12-13.63,13.38,3.8,5.28,.69,8.79-2.19,12.63-1.19,1.59-2.29,3.26-3.44,4.89l-.73,.33c-5.27-.61-8.7-3.33-10.48-7.94l-.09-3.57C5.29,20.11,17.22,9.44,32.05,1.82c8.31-4.27,13.75-.87,16.86,8.58l-.32,.93Z"/>
    </g>
  </g>
</svg>